<?xml version="1.0" standalone="no"?>
<!DOCTYPE svg PUBLIC "-//W3C//DTD SVG 20010904//EN"
 "http://www.w3.org/TR/2001/REC-SVG-20010904/DTD/svg10.dtd">
<svg version="1.0" xmlns="http://www.w3.org/2000/svg"
 width="640.000000pt" height="190.000000pt" viewBox="0 0 640.000000 190.000000"
 preserveAspectRatio="xMidYMid meet">

<g transform="translate(0.000000,190.000000) scale(0.100000,-0.100000)"
fill="#000000" stroke="none">
<path d="M800 1889 c-112 -11 -263 -44 -369 -81 -176 -61 -426 -203 -426 -241
0 -20 113 -183 132 -191 6 -3 46 18 90 45 229 146 456 212 728 212 274 0 510
-70 744 -222 58 -37 66 -40 81 -26 36 32 132 176 127 189 -8 21 -149 110 -252
160 -177 87 -356 136 -561 156 -121 11 -170 11 -294 -1z m467 -88 c126 -28
230 -63 348 -120 86 -41 215 -116 215 -125 0 -1 -17 -25 -38 -53 l-37 -51 -80
49 c-432 262 -1014 263 -1437 2 -40 -24 -75 -45 -79 -46 -4 -1 -24 21 -43 48
l-36 50 27 22 c42 34 228 128 318 161 95 35 191 60 300 78 119 20 423 12 542
-15z"/>
<path d="M715 1480 c-157 -34 -304 -94 -419 -172 -78 -53 -78 -53 -4 -154 36
-49 72 -90 80 -92 8 -2 48 18 89 43 150 92 306 135 494 135 188 0 344 -43 494
-135 40 -25 79 -45 86 -45 7 0 44 41 81 92 52 70 65 95 57 107 -15 25 -166
116 -250 151 -152 64 -249 82 -443 86 -145 3 -190 0 -265 -16z m485 -65 c101
-22 261 -86 338 -135 l63 -40 -33 -46 c-18 -25 -35 -47 -39 -50 -3 -2 -55 21
-115 51 -164 83 -271 108 -459 108 -130 0 -163 -3 -250 -26 -57 -16 -145 -50
-205 -79 -57 -29 -107 -54 -111 -56 -7 -3 -84 97 -78 102 59 45 224 123 323
151 162 47 404 55 566 20z"/>
<path d="M6202 1183 c-199 -555 -241 -651 -328 -751 -74 -84 -170 -116 -215
-71 -36 36 -22 114 65 349 42 113 76 210 76 216 0 14 -56 13 -68 -1 -15 -16
-142 -376 -151 -428 -8 -45 -3 -87 14 -130 17 -40 116 -61 179 -37 37 14 113
86 152 145 l34 50 0 -69 c0 -64 2 -70 35 -103 34 -34 37 -35 98 -31 74 4 122
34 185 114 52 66 114 172 110 185 -2 7 -25 -24 -50 -67 -83 -144 -163 -213
-245 -214 -47 0 -73 30 -73 83 0 49 17 101 159 489 55 153 101 282 101 288 0
5 -15 10 -34 10 -28 0 -36 -5 -44 -27z"/>
<path d="M2900 1134 c-284 -74 -530 -381 -530 -659 0 -119 40 -165 143 -165
161 0 266 134 413 530 63 168 73 189 116 233 50 50 78 58 115 32 35 -24 48
-79 34 -141 -20 -90 -121 -183 -198 -184 -26 -1 -24 -2 17 -21 72 -32 85 -58
85 -164 0 -107 -18 -150 -91 -214 -70 -61 -151 -67 -213 -15 -39 33 -48 15
-10 -22 26 -25 39 -29 100 -32 63 -4 77 -1 134 27 139 69 202 214 143 331 -18
34 -35 51 -77 72 -29 15 -47 30 -40 32 8 2 32 9 55 15 50 13 132 83 150 128 8
18 14 55 14 82 0 98 -84 152 -234 150 -39 0 -96 -7 -126 -15z m134 -34 c-87
-49 -127 -112 -220 -341 -128 -318 -186 -409 -268 -425 -54 -10 -105 6 -130
39 -17 23 -21 42 -20 105 1 161 75 316 218 457 134 133 260 193 406 194 l65 1
-51 -30z"/>
<path d="M790 1096 c-87 -20 -130 -36 -211 -78 -88 -45 -123 -74 -115 -95 12
-31 129 -183 141 -183 7 0 38 16 70 35 96 57 146 70 275 70 132 0 193 -15 284
-70 32 -19 64 -35 70 -35 12 0 131 155 142 185 3 7 -5 23 -18 35 -33 30 -192
107 -263 126 -79 22 -301 28 -375 10z m355 -72 c53 -14 175 -67 214 -93 13 -9
-2 -36 -59 -104 -4 -4 -41 9 -82 28 -175 83 -368 81 -541 -7 -33 -16 -63 -26
-66 -21 -57 66 -73 95 -60 105 59 41 209 96 304 112 54 8 229 -3 290 -20z"/>
<path d="M5780 1090 c-15 -28 4 -60 36 -60 31 0 54 41 34 65 -18 21 -57 19
-70 -5z"/>
<path d="M4819 1003 l-24 -67 -72 3 c-42 1 -74 -2 -78 -8 -4 -7 17 -11 64 -11
46 0 71 -4 71 -11 0 -18 -88 -255 -111 -302 -36 -71 -116 -182 -151 -212 -98
-83 -198 -70 -198 25 0 23 21 97 51 177 74 200 76 275 9 323 -34 24 -118 27
-158 6 -33 -18 -110 -97 -146 -151 -33 -50 -33 -44 4 57 17 45 30 87 30 93 0
17 -68 5 -75 -14 -4 -9 -27 -72 -52 -141 -62 -170 -97 -233 -173 -311 -85 -85
-143 -114 -233 -114 -65 0 -70 2 -98 33 -26 29 -29 40 -29 97 0 72 17 162 32
171 5 3 42 10 81 15 89 11 187 57 223 105 16 20 28 52 31 78 5 39 2 48 -22 70
-23 22 -38 26 -84 26 -183 0 -354 -231 -338 -453 8 -115 56 -160 177 -166 71
-3 86 0 143 27 62 29 129 85 176 147 25 33 25 32 -19 -87 l-29 -78 38 0 38 0
54 147 c76 212 183 379 269 423 54 28 95 26 127 -6 22 -23 25 -31 20 -73 -3
-26 -29 -109 -57 -185 -68 -186 -69 -259 -1 -299 32 -19 106 -22 146 -7 37 14
119 93 156 151 17 27 32 49 33 49 0 0 1 -34 1 -76 0 -73 1 -77 33 -105 28 -25
40 -29 90 -29 77 1 131 27 197 97 46 48 55 54 55 35 0 -40 28 -91 62 -112 43
-26 128 -26 183 -1 135 63 172 210 106 426 -40 132 -40 169 0 211 38 39 34 67
-8 62 -23 -2 -31 -12 -46 -52 -17 -47 -186 -305 -233 -356 -13 -14 -34 -50
-47 -80 -68 -154 -248 -259 -317 -185 -35 37 -24 95 65 340 l78 215 84 0 c57
0 82 3 78 11 -4 6 -36 10 -73 9 -37 -1 -70 -1 -74 -1 -4 1 3 30 17 66 l24 65
-38 0 c-39 0 -39 0 -62 -67z m-1050 -96 c18 -15 8 -80 -19 -120 -32 -47 -90
-85 -156 -102 -69 -18 -104 -19 -104 -4 0 24 63 129 102 169 67 69 134 91 177
57z m1560 -202 c22 -166 -13 -293 -93 -340 -107 -63 -209 5 -193 129 7 48 35
76 71 69 20 -4 28 0 37 21 10 21 9 29 -4 44 -10 10 -17 21 -17 25 0 3 39 64
88 134 l87 128 6 -60 c4 -33 12 -100 18 -150z"/>
<path d="M905 711 c-30 -13 -65 -55 -74 -87 -6 -24 -14 -30 -45 -35 -21 -3
-49 -18 -64 -33 -27 -26 -27 -27 -30 -205 -3 -190 4 -240 40 -286 39 -50 89
-65 223 -65 106 0 126 3 165 23 89 44 105 104 98 362 -3 141 -4 145 -30 171
-15 15 -43 30 -64 33 -32 5 -39 11 -46 36 -12 48 -59 87 -110 91 -24 2 -52 0
-63 -5z m89 -72 c45 -35 34 -49 -39 -49 -50 0 -65 3 -65 14 0 16 46 56 65 56
7 0 24 -9 39 -21z m-170 -139 c3 -17 12 -33 21 -36 21 -9 45 14 45 42 0 23 3
24 65 24 62 0 65 -1 65 -24 0 -52 56 -60 62 -9 3 31 30 42 53 23 12 -10 15
-48 15 -202 l0 -190 -29 -29 -29 -29 -137 0 -137 0 -29 29 -29 29 0 189 c0
194 4 213 41 213 10 0 19 -11 23 -30z"/>
</g>
</svg>
