<?xml version="1.0" standalone="no"?>
<!DOCTYPE svg PUBLIC "-//W3C//DTD SVG 20010904//EN"
 "http://www.w3.org/TR/2001/REC-SVG-20010904/DTD/svg10.dtd">
<svg version="1.0" xmlns="http://www.w3.org/2000/svg"
 width="640.000000pt" height="207.000000pt" viewBox="0 0 640.000000 207.000000"
 preserveAspectRatio="xMidYMid meet">

<g transform="translate(0.000000,207.000000) scale(0.100000,-0.100000)"
fill="#000000" stroke="none">
<path d="M1025 2050 c-50 -25 -75 -65 -75 -122 0 -139 178 -189 251 -71 17 27
20 45 17 84 -6 56 -33 93 -85 115 -43 19 -61 18 -108 -6z"/>
<path d="M1197 1780 c-15 -5 -41 -20 -58 -34 -37 -31 -39 -31 -89 -6 -22 11
-51 20 -66 20 -27 0 -27 0 -8 -21 26 -29 25 -102 -3 -159 -12 -25 -47 -70 -77
-100 l-54 -56 10 -58 c7 -41 7 -75 -2 -119 -10 -54 -20 -71 -76 -135 -79 -90
-148 -191 -205 -301 -24 -46 -49 -85 -55 -88 -6 -2 -49 9 -95 24 -81 28 -83
30 -94 68 -5 22 -14 46 -18 53 -13 20 -62 14 -158 -19 -106 -37 -139 -68 -139
-130 0 -55 17 -58 102 -19 104 48 144 46 205 -11 26 -25 75 -65 107 -89 99
-75 102 -74 351 110 244 181 331 253 385 322 38 48 40 53 40 122 0 43 9 105
21 152 17 61 22 109 22 210 l1 130 40 -14 c49 -17 196 -18 272 -2 32 7 80 9
110 5 53 -6 74 5 37 19 -15 6 -15 8 -3 16 8 6 26 10 38 10 31 0 24 22 -12 35
-19 6 -40 5 -74 -5 -73 -23 -190 -18 -243 9 -100 53 -171 73 -212 61z"/>
<path d="M863 1721 c-59 -43 -114 -112 -168 -213 -27 -49 -75 -121 -107 -159
-42 -50 -58 -77 -58 -98 0 -38 40 -71 86 -71 28 0 34 4 34 20 0 11 -7 23 -15
26 -19 8 -19 43 0 50 8 4 21 1 29 -5 17 -15 27 -3 20 24 -5 18 11 37 86 104
117 106 155 148 180 202 32 71 26 110 -20 134 -26 13 -30 12 -67 -14z"/>
<path d="M2828 1280 c-63 -11 -146 -50 -190 -89 -129 -113 -90 -311 65 -328
l44 -5 7 37 c8 42 9 41 -36 63 -100 50 -49 165 91 206 178 52 358 -42 336
-175 -11 -64 -83 -119 -157 -119 -12 0 -18 -8 -18 -22 0 -13 -3 -33 -6 -45 -6
-20 -3 -23 26 -23 91 0 182 -63 195 -134 26 -137 -112 -220 -266 -161 -13 5
-20 -5 -33 -42 -15 -45 -15 -49 0 -60 25 -18 95 -26 192 -21 150 8 256 79 282
190 30 125 -32 222 -171 268 l-51 16 40 12 c45 14 117 86 128 127 13 53 -1
134 -32 178 -36 51 -118 102 -188 117 -71 15 -202 21 -258 10z"/>
<path d="M4738 1283 c-19 -5 -22 -17 -38 -163 -21 -184 -14 -169 -73 -172 -48
-3 -51 -5 -60 -37 -13 -51 -5 -61 53 -61 51 0 52 0 46 -27 -3 -16 -8 -59 -12
-98 -6 -76 -23 -133 -54 -195 -23 -45 -49 -63 -88 -58 -26 3 -27 5 -27 68 0
36 7 112 14 170 16 123 13 146 -30 188 -60 58 -177 63 -251 10 -23 -16 -28
-17 -28 -4 0 25 -41 46 -90 46 -25 0 -51 -4 -58 -8 -7 -5 -18 -60 -27 -138
-21 -171 -18 -164 -71 -222 -91 -102 -239 -146 -312 -93 -47 33 -65 75 -65
151 0 137 96 251 175 209 30 -16 38 -28 38 -62 0 -55 -46 -114 -112 -141 -33
-14 -36 -18 -29 -43 7 -24 13 -28 42 -27 52 1 155 52 194 95 96 107 52 240
-91 269 -147 31 -288 -39 -355 -175 -29 -60 -31 -70 -27 -148 3 -68 9 -93 31
-130 33 -56 85 -100 136 -116 115 -34 293 11 371 94 31 33 41 32 35 -5 -3 -17
-7 -43 -10 -60 l-4 -30 82 0 83 0 17 143 c28 225 37 265 63 297 42 49 108 49
134 0 7 -14 6 -65 -6 -178 -16 -151 -16 -160 1 -196 25 -52 67 -76 134 -76 58
0 130 33 150 68 8 15 14 12 44 -23 l35 -40 80 0 c68 0 85 4 111 23 16 12 32
22 34 22 3 0 7 -13 10 -30 9 -40 71 -106 114 -121 40 -13 130 -7 164 12 22 11
20 13 -29 31 -59 22 -98 63 -108 113 -9 52 31 124 128 228 l83 88 67 -46 c96
-65 123 -130 77 -189 -26 -33 -88 -37 -119 -6 -22 22 -26 70 -10 101 13 23 9
23 -34 5 -69 -29 -98 -113 -59 -172 30 -46 86 -66 172 -62 167 7 264 110 237
251 -11 57 -74 119 -173 168 -48 24 -89 44 -90 44 -1 0 5 20 13 44 28 82 -14
141 -101 141 -37 0 -52 -6 -82 -33 -31 -29 -36 -40 -36 -78 0 -26 7 -56 18
-72 l18 -28 -85 -87 c-46 -48 -93 -100 -104 -116 l-21 -29 -7 42 c-9 58 -36
107 -90 168 -25 28 -46 56 -46 62 0 7 32 11 95 11 l95 0 0 50 0 50 -85 0
c-100 0 -93 -14 -70 154 8 59 12 118 9 132 -10 41 -75 63 -136 47z m549 -349
c3 -8 0 -27 -6 -41 -9 -21 -14 -23 -26 -13 -15 13 -20 51 -8 63 12 12 33 7 40
-9z m-424 -274 c47 -93 30 -195 -31 -188 -33 4 -37 25 -27 156 8 107 17 112
58 32z"/>
<path d="M5744 1256 c-44 -44 -46 -86 -5 -127 23 -22 39 -29 69 -29 98 0 130
130 42 175 -44 23 -69 18 -106 -19z"/>
<path d="M6116 1280 c-45 -14 -85 -59 -102 -114 -8 -28 -30 -183 -49 -344 -35
-311 -42 -336 -92 -348 -35 -9 -57 7 -61 42 -1 16 9 116 23 223 14 107 22 197
19 200 -13 13 -112 4 -137 -12 -28 -18 -27 -12 -56 -271 -20 -180 -17 -215 27
-259 51 -51 172 -51 232 0 l31 26 22 -20 c37 -34 63 -43 124 -43 111 0 202 68
263 195 44 93 45 110 10 135 -21 15 -30 17 -30 8 0 -19 -55 -132 -82 -169 -39
-52 -116 -77 -146 -47 -15 15 -15 86 0 202 l11 91 64 70 c148 161 184 343 83
417 -30 22 -113 31 -154 18z m122 -112 c31 -31 -7 -153 -73 -233 -22 -26 -25
-27 -25 -10 0 49 21 203 31 228 12 29 45 37 67 15z"/>
<path d="M2843 1105 c-18 -8 -33 -15 -34 -17 0 -2 -10 -79 -22 -172 l-22 -170
-55 -33 c-69 -41 -129 -99 -146 -140 -22 -51 -18 -125 8 -158 61 -78 206 -69
271 16 39 52 54 113 92 379 20 135 38 260 41 278 l6 32 -53 0 c-30 -1 -69 -7
-86 -15z m-100 -517 c-8 -67 -33 -112 -65 -116 -65 -8 -52 84 18 132 21 14 42
26 45 26 4 0 5 -19 2 -42z"/>
<path d="M1145 969 c-22 -22 -70 -65 -107 -96 -38 -30 -68 -58 -68 -62 0 -3
48 -33 107 -66 59 -33 127 -73 151 -88 l45 -28 -6 -66 c-8 -81 11 -180 58
-301 27 -70 32 -96 28 -134 -9 -74 3 -82 107 -74 141 11 299 62 262 85 -8 4
-51 11 -97 14 -94 7 -147 25 -168 59 -36 56 -48 241 -22 360 15 73 10 107 -23
155 -11 15 -36 53 -55 83 -39 60 -155 200 -166 200 -4 0 -25 -18 -46 -41z"/>
<path d="M724 290 c-32 -13 -84 -78 -85 -108 -2 -47 3 -76 17 -104 18 -34 32
-42 49 -28 18 15 85 -12 85 -35 0 -19 26 -14 75 14 67 38 88 141 43 207 -26
38 -31 40 -47 20 -16 -19 -81 2 -81 26 0 19 -21 22 -56 8z m18 -95 c6 -25 3
-34 -17 -54 -24 -24 -25 -24 -45 -6 -26 23 -26 49 1 76 27 27 51 21 61 -16z
m152 -33 c13 -16 14 -24 5 -51 -10 -28 -15 -32 -42 -29 -41 4 -53 43 -24 76
25 27 39 28 61 4z"/>
</g>
</svg>
